# xmcd
#
# Track frame offsets: 
#        150
#        13902
#        29064
#        43048
#        59888
#        80637
#        98723
#        116716
#        145300
#        166073
#        190977
#        212774
#        229512
#        261373
#        283176
#        299768
#
# Disc length: 4261 seconds
#
# Revision: 0
# Processed by: cddbd v1.5.2PL0 Copyright (c) Steve Scherf et al.
# Submitted via: ExactAudioCopy v1.1
#
DISCID=0110a310
DTITLE=Jabula - Thunder And Happiness: The Complete Albums
DYEAR=1976
DGENRE=Rock
TTITLE0=Jabula Happiness
TTITLE1=Badishi-Herdboys
TTITLE2=Listen To Me Crying
TTITLE3=Our Fathers
TTITLE4=Baleka - Run Away
TTITLE5=Naledi
TTITLE6=Siakala - We Are Sad
TTITLE7=Ithumelang Ba Mamelodi
TTITLE8=Baile - They Are Gone
TTITLE9=Journey To Afrika
TTITLE10=Tears Of Afrika
TTITLE11=Thandi
TTITLE12=Thunder Into Our Hearts
TTITLE13=Soweto My Love
TTITLE14=Harvest Part II
TTITLE15=Let Us Be Free
EXTD=
EXTT0=
EXTT1=
EXTT2=
EXTT3=
EXTT4=
EXTT5=
EXTT6=
EXTT7=
EXTT8=
EXTT9=
EXTT10=
EXTT11=
EXTT12=
EXTT13=
EXTT14=
EXTT15=
PLAYORDER=
